<svg xmlns="http://www.w3.org/2000/svg" viewBox="0 0 320 380" role="img" aria-label="hibs-racing ESTD 2026">
  <defs>
    <linearGradient id="ring" x1="0%" y1="0%" x2="100%" y2="100%">
      <stop offset="0%" stop-color="#b7f7c8"/>
      <stop offset="45%" stop-color="#007A33"/>
      <stop offset="100%" stop-color="#052e16"/>
    </linearGradient>
    <linearGradient id="gold" x1="0%" y1="0%" x2="0%" y2="100%">
      <stop offset="0%" stop-color="#fff3c4"/>
      <stop offset="50%" stop-color="#f6d889"/>
      <stop offset="100%" stop-color="#c9a227"/>
    </linearGradient>
    <filter id="glow" x="-20%" y="-20%" width="140%" height="140%">
      <feGaussianBlur stdDeviation="3" result="b"/>
      <feMerge><feMergeNode in="b"/><feMergeNode in="SourceGraphic"/></feMerge>
    </filter>
  </defs>
  <ellipse cx="160" cy="190" rx="148" ry="178" fill="none" stroke="url(#ring)" stroke-width="6"/>
  <ellipse cx="160" cy="190" rx="132" ry="162" fill="rgba(6,14,24,0.92)" stroke="rgba(183,247,200,0.18)" stroke-width="2"/>
  <path d="M48 118 Q160 58 272 118" fill="none" stroke="url(#gold)" stroke-width="3" opacity="0.9"/>
  <text x="160" y="98" text-anchor="middle" fill="#f8fafc" font-family="Orbitron,Arial,sans-serif" font-size="22" font-weight="900" letter-spacing="4">HORSE RACING</text>
  <text x="160" y="318" text-anchor="middle" fill="#f8fafc" font-family="Orbitron,Arial,sans-serif" font-size="18" font-weight="700" letter-spacing="3">HIBS-RACING</text>
  <path d="M48 262 Q160 322 272 262" fill="none" stroke="url(#gold)" stroke-width="3" opacity="0.9"/>
  <!-- Golden harp -->
  <g transform="translate(160 195) scale(1.05)" filter="url(#glow)">
    <path fill="url(#gold)" d="M-8-52c-4-18 8-34 24-34 10 0 18 6 22 14 6-8 16-12 26-10 18 4 26 22 20 40-6 16-22 28-40 32l-6 58h-12l-6-58c-18-4-34-16-40-32-6-18 2-36 20-40 10-2 20 2 26 10 4-8 12-14 22-14 16 0 28 16 24 34-2 8-8 14-16 18 8 4 14 10 16 18 4 18-8 34-24 34-10 0-18-6-22-14-6 8-16 12-26 10-18-4-26-22-20-40 2-8 8-14 16-18-8-4-14-10-16-18z"/>
    <path fill="#052e16" opacity="0.35" d="M-2-18h4v72h-4z"/>
    <path fill="none" stroke="#052e16" stroke-width="2" opacity="0.45" d="M-28-8 Q0 18 28-8 M-24 8 Q0 34 24 8 M-20 24 Q0 50 20 24"/>
  </g>
  <text x="72" y="196" text-anchor="middle" fill="#94a3b8" font-family="Inter,Arial,sans-serif" font-size="11" font-weight="700" letter-spacing="1">ESTD</text>
  <text x="248" y="188" text-anchor="middle" fill="url(#gold)" font-family="Orbitron,Arial,sans-serif" font-size="26" font-weight="900">20</text>
  <text x="248" y="216" text-anchor="middle" fill="url(#gold)" font-family="Orbitron,Arial,sans-serif" font-size="26" font-weight="900">26</text>
</svg>
